<?xml version="1.0" standalone="no"?>
<!DOCTYPE svg PUBLIC "-//W3C//DTD SVG 20010904//EN"
 "http://www.w3.org/TR/2001/REC-SVG-20010904/DTD/svg10.dtd">
<svg version="1.0" xmlns="http://www.w3.org/2000/svg"
 width="2047.000000pt" height="2047.000000pt" viewBox="0 0 2047.000000 2047.000000"
 preserveAspectRatio="xMidYMid meet">
<metadata>
Created by potrace 1.14, written by Peter Selinger 2001-2017
</metadata>
<g transform="translate(0.000000,2047.000000) scale(0.100000,-0.100000)"
fill="#000000" stroke="none">
<path d="M4593 15433 c3 -2771 8 -5587 11 -6258 3 -671 8 -1859 11 -2640 2
-781 7 -2255 11 -3275 8 -2278 12 -3243 13 -3252 1 -11 298 -10 362 2 30 5 70
11 89 14 19 3 44 7 55 10 11 2 47 7 80 11 32 4 68 9 79 11 11 2 42 6 69 9 28
3 53 8 56 9 3 2 42 7 86 11 43 3 82 8 85 10 3 2 35 6 71 9 36 4 76 8 90 11 13
2 56 6 94 10 39 3 84 8 100 10 17 3 62 7 100 10 39 3 86 8 105 10 19 2 71 7
115 10 44 3 103 8 130 10 98 8 201 15 280 20 44 3 109 8 145 10 36 2 115 7
175 10 61 3 133 8 160 10 28 2 104 7 170 10 66 3 154 8 195 10 105 7 219 14
330 20 137 7 349 22 440 30 30 3 91 8 135 11 44 4 94 8 110 9 17 2 47 3 68 4
l37 1 -2 4340 c-2 2387 0 4340 4 4340 3 0 20 -39 36 -87 16 -49 60 -173 97
-278 37 -104 71 -201 75 -215 24 -73 111 -318 119 -335 8 -19 20 -53 88 -255
14 -41 29 -84 34 -95 7 -17 54 -153 79 -225 20 -59 73 -207 80 -225 5 -11 45
-126 90 -255 45 -129 106 -302 135 -385 52 -147 66 -187 200 -570 77 -219 117
-333 150 -425 13 -36 58 -164 100 -285 42 -121 80 -229 85 -240 8 -18 208
-588 347 -990 30 -88 64 -182 74 -210 10 -27 43 -120 73 -205 30 -85 87 -247
127 -360 39 -113 84 -241 100 -285 15 -44 39 -114 54 -155 32 -91 155 -439
200 -570 19 -52 59 -167 90 -255 32 -88 63 -178 70 -200 8 -22 37 -105 65
-185 29 -80 56 -158 61 -175 5 -16 13 -39 18 -50 5 -11 19 -49 31 -85 12 -36
24 -72 27 -80 4 -8 7 -17 8 -20 1 -3 5 -12 8 -20 4 -8 15 -42 26 -75 11 -33
43 -125 71 -205 65 -183 95 -269 121 -345 11 -33 24 -69 29 -80 5 -11 20 -56
35 -101 15 -44 30 -85 33 -91 5 -7 124 -13 332 -18 179 -4 350 -8 380 -10 30
-2 108 -6 173 -9 64 -4 143 -8 175 -11 31 -2 98 -7 147 -10 86 -6 127 -9 260
-20 33 -3 87 -7 120 -10 258 -21 371 -31 440 -40 17 -2 68 -7 115 -10 47 -4
96 -9 110 -11 14 -2 54 -6 90 -9 36 -3 79 -8 95 -10 17 -2 62 -7 100 -10 39
-4 81 -8 95 -10 14 -3 52 -7 85 -10 60 -5 83 -8 183 -20 29 -4 69 -9 90 -10
93 -9 146 -15 272 -30 25 -3 63 -8 85 -10 55 -5 132 -14 180 -20 22 -3 60 -7
85 -10 84 -9 143 -17 159 -20 9 -1 48 -6 86 -9 39 -4 125 -16 193 -26 67 -11
125 -20 127 -20 3 0 5 4603 5 10230 l0 10230 -2019 0 -2019 0 -2 -2237 c-4
-4846 -7 -6733 -11 -6738 -3 -2 -10 10 -17 28 -6 17 -61 174 -122 347 -61 173
-113 322 -117 330 -3 8 -7 20 -9 25 -3 11 -14 42 -144 405 -50 140 -100 280
-110 310 -10 30 -25 73 -33 95 -9 22 -32 87 -52 145 -20 58 -43 121 -50 140
-8 19 -33 89 -55 155 -23 66 -45 129 -50 140 -4 11 -26 72 -49 135 -22 63 -61
174 -86 245 -26 72 -85 238 -132 370 -46 132 -120 341 -164 465 -44 124 -94
263 -111 310 -16 47 -39 110 -50 140 -11 30 -46 132 -79 225 -32 94 -63 179
-68 190 -5 11 -20 54 -35 95 -14 41 -45 131 -70 200 -24 69 -63 179 -86 245
-23 66 -46 129 -50 140 -5 11 -39 106 -75 210 -37 105 -78 219 -91 255 -13 36
-42 119 -65 185 -23 66 -45 129 -50 140 -10 24 -72 197 -100 280 -11 33 -31
90 -45 128 -52 143 -76 210 -159 447 -48 135 -97 274 -110 310 -13 36 -51 144
-85 240 -34 96 -80 225 -102 285 -22 61 -46 128 -53 150 -7 22 -34 99 -60 170
-26 72 -71 198 -100 280 -78 221 -146 412 -205 575 -28 80 -53 150 -54 155 -2
6 -7 21 -13 35 -5 14 -27 76 -49 138 l-39 112 -2019 0 -2018 0 5 -5037z"/>
</g>
</svg>
